<?xml version="1.0" standalone="no"?>
<!DOCTYPE svg PUBLIC "-//W3C//DTD SVG 20010904//EN"
 "http://www.w3.org/TR/2001/REC-SVG-20010904/DTD/svg10.dtd">
<svg version="1.0" xmlns="http://www.w3.org/2000/svg"
 width="280.000000pt" height="267.000000pt" viewBox="0 0 280.000000 267.000000"
 preserveAspectRatio="xMidYMid meet">

<g transform="translate(0.000000,267.000000) scale(0.100000,-0.100000)"
fill="#000000" stroke="none">
<path d="M2077 2508 c-27 -29 -90 -99 -140 -155 l-92 -103 -718 0 -719 0 -29
-29 c-23 -23 -29 -38 -29 -72 l0 -43 357 -358 c331 -332 356 -359 341 -375 -8
-10 -164 -183 -346 -386 -217 -239 -332 -374 -332 -388 0 -12 17 -37 37 -56
95 -90 194 -173 207 -173 22 0 42 20 273 276 120 133 493 544 828 915 724 801
675 745 675 771 0 12 -20 40 -47 66 -107 99 -184 162 -200 162 -9 0 -39 -24
-66 -52z"/>
<path d="M1475 766 c-148 -164 -271 -301 -273 -305 -1 -4 89 -97 201 -209 185
-184 206 -202 238 -202 43 0 97 32 104 62 3 13 4 232 3 488 l-3 464 -270 -298z"/>
</g>
</svg>
