<?xml version="1.0" standalone="no"?>
<!DOCTYPE svg PUBLIC "-//W3C//DTD SVG 20010904//EN"
 "http://www.w3.org/TR/2001/REC-SVG-20010904/DTD/svg10.dtd">
<svg version="1.0" xmlns="http://www.w3.org/2000/svg"
 width="262.000000pt" height="266.000000pt" viewBox="0 0 262.000000 266.000000"
 preserveAspectRatio="xMidYMid meet">

<g transform="translate(0.000000,266.000000) scale(0.100000,-0.100000)"
fill="#000000" stroke="none">
<path d="M228 2441 c-27 -24 -33 -36 -33 -70 0 -41 3 -44 398 -439 l397 -397
0 -383 c0 -305 3 -389 14 -415 8 -18 112 -130 233 -249 208 -207 221 -218 257
-218 30 0 45 7 72 34 l33 33 1 599 0 599 397 397 c395 395 398 398 398 439 0
34 -6 46 -33 70 l-32 29 -1035 0 -1035 0 -32 -29z"/>
<path d="M1768 899 c-39 -34 -58 -58 -58 -74 0 -16 27 -47 93 -106 50 -46 96
-86 100 -90 5 -4 -37 -47 -92 -95 -125 -110 -127 -119 -40 -192 36 -31 71 -52
84 -52 23 0 75 39 185 137 l45 41 88 -80 c98 -88 125 -103 159 -94 33 8 128
102 128 125 0 20 -29 50 -142 147 -31 27 -56 52 -55 55 1 4 46 46 100 94 64
57 97 94 97 107 0 13 -23 42 -57 74 -84 78 -99 76 -217 -31 -51 -47 -97 -85
-100 -85 -4 0 -51 38 -104 85 -119 105 -132 107 -214 34z"/>
</g>
</svg>
